# xmcd CD database file generated by Grip 3.3.1
# 
# Track frame offsets:
#       150
#       14495
#       32652
#       50780
#       69335
#       86425
#       104400
#       121692
#       137317
#       152305
#       167845
#       190872
#       217872
#       250502
#       271817
#       298830
#       329010
# 
# Disc length: 4636 seconds
# 
# Revision: 2
# Processed by: cddbd v1.5.2PL0 Copyright (c) Steve Scherf et al.
# Submitted via: Grip 3.3.1
# 
DISCID=e4121a11
DTITLE=Freddie King - The Texas Cannonball
DYEAR=1991
DGENRE=Blues
TTITLE0=Lowdown In Lodi
TTITLE1=Reconsider Baby
TTITLE2=Big Legged Woman
TTITLE3=Me And My Guitar
TTITLE4=I'd Rather Be Blind
TTITLE5=Can't Trust Your Neighbor
TTITLE6=You Was Wrong
TTITLE7=How Many More Years
TTITLE8=Ain't No Sunshine
TTITLE9=The Sky Is Crying
TTITLE10=Love Her With A Feeling
TTITLE11=Somebody's Got To Go
TTITLE12=Pulpwood
TTITLE13=That's All Right
TTITLE14=The Same Thing
TTITLE15=Tore Down
TTITLE16=Dust My Broom
EXTD=Copyright 1972, 1991 DCC Compact Classics Inc/Shelter Entertainme
EXTD=nt Group\nProduced by Leon Russell and Denny Cordell, compiled an
EXTD=d remastered by\nby Steve Hoffman.\nFreddie King (guitar, vocals)
EXTD=is accompagnied by...\nfirst 5 songs, recorded on 26/27-Feb-1972
EXTD=in Memphis:\n  Don Preston (guitar), Leon Russell (piano), John 
EXTD=Galle (organ),\n  Carl Radle (bass), Chuck Blackwell (drums), Jim
EXTD=Gordon (drums).\nnext 8 songs, recorded on 2/3/4-Feb-1972 in Los
EXTD=Angeles:\n  Leon Russell (piano, organ), Don Preston (guitar),\n
EXTD=Donald "Duck" Dunn (bass), Al Jackson (drums).\nnext 2 songs, r
EXTD=ecorded on 24-Oct-1970 in Chicago:\n  Leon Russell (piano), Don P
EXTD=reston (guitar), John Grallie (organ),\n  Donald "Duck" Dunn (bas
EXTD=s), Chuck Blackwell (drums).\nlast 2 songs, recorded on 10-Nov-19
EXTD=71 in Hollywood:\n  Benny Turner (bass), Bobby Turner (guitar),\n
EXTD=Robert Griffin (organ, on Tore Down), Dean O'Neil (drums).\nOri
EXTD=ginal album released on 15-May-1972.
EXTT0=John Fogerty - Burlington Music Co Ltd
EXTT1=Lowell Fulson - Tristan Music Ltd
EXTT2=Israel Tolbert - Rondor Music (London) Ltd
EXTT3=Leon Russell, Chuck Blackwell - Rondor Music (London) Ltd
EXTT4=Leon Russell - Rondor Music (London) Ltd
EXTT5=I. Hayes, D. Potter - Rondor Music (London) Ltd
EXTT6=Freddie King - Rondor Music (London) Ltd
EXTT7=Chester Burnett - Tristan Music Ltd
EXTT8=Bill Withers - EMI Music Publishing Ltd
EXTT9=Elmore James, M. Robinson, S. Thompson - Planetary Nom London Ltd
EXTT10=Freddie King, S. Thompson - Lark Music Ltd
EXTT11=Freddie King - Rondor Music Ltd
EXTT12=Freddie King, P. Wingfield, R. Davies, B. Trench, S. Ferrone\n - 
EXTT12=Gonzales Music (Leosong)
EXTT13=Jimmy Rogers - Tristan Music Ltd
EXTT14=Freddie King - Rondor Music (London) Ltd
EXTT15=Freddie King, S. Thompson - Lark Music Ltd
EXTT16=Robert Johnson, Elmore James - Tristan Music Ltd
PLAYORDER=
